<?xml version="1.0" encoding="utf-8"?>
<!-- Generator: Adobe Illustrator 22.0.1, SVG Export Plug-In . SVG Version: 6.00 Build 0)  -->
<svg version="1.1" id="Layer_1" xmlns="http://www.w3.org/2000/svg" xmlns:xlink="http://www.w3.org/1999/xlink" x="0px" y="0px"
	 viewBox="0 0 250 50" style="enable-background:new 0 0 250 50;" xml:space="preserve">
<style type="text/css">
	.st0{fill:#EB6D81;}
</style>
<g>
	<g>
		<path class="st0" d="M90,29.1c-0.4,1.5-1.4,1.9-2.6,1.5c-1.2-0.4-1.3-1.4-0.9-2.6s1.3-1.8,2.5-1.4C90,26.9,90.3,27.8,90,29.1z"/>
		<path class="st0" d="M79.1,29c-0.2,1.5-1,2.1-2.3,1.9c-1.3-0.2-1.6-1.2-1.3-2.4c0.2-1.3,1-2,2.3-1.8C78.8,26.9,79.2,27.7,79.1,29z
			"/>
		<path class="st0" d="M6.8,36.4c-1.6,1.7-4.4,0.6-4.6-0.9C2,34.6,11.5,3.1,17,3c3.4,0,7.6,30.1,7.5,32.5c0,1.6-2.4,1.9-3.6,1.3
			C18.3,35.2,17,26.1,17,26.1c-2.3,0-4,0.6-6.2,1.3C10.8,27.4,8.1,34.4,6.8,36.4z M15.6,13.2c-0.9,1.6-2.8,6.4-3.6,9
			c1.2,0.4,3.9-0.3,4.5-0.9C16.7,19.3,15.8,13.2,15.6,13.2z"/>
		<path class="st0" d="M43.2,14.1c0.8-1,3-1.7,3.9,0.5c1,2.2-2.7,12.4-5.1,17.6c-1.9,4.4-6.3,11.7-7.9,13.2
			c-0.7,0.8-4.6,2.4-8.1,1.2c-4.1-1.4,0.5-8.6,5.1-4c1.6-1.8,3.6-5.4,4.2-7.8c-4.1-5.4-9-13.2-8.6-18c0.3-2.3,2.4-3.9,4.4-2.8
			c2.1,1.1,4.5,12.4,6.8,15.3C38.9,27.7,41.3,16.3,43.2,14.1z"/>
		<path class="st0" d="M57.6,31c5.6,0.7,2.9-16.1,6.9-15.5c1.6,0.2,2.9,1.7,1.9,8.4C65.6,30,62.2,37,54.3,35.3
			C48.1,33.9,49,25,49.1,23.6c0.2-3.5,0.9-6.7,3-6.7c1.5,0,2.2,1.4,2.1,3.2C54.2,24.1,53.6,30.5,57.6,31z"/>
		<path class="st0" d="M78.4,16.4c2.4,0,4.3,2.1,4.9,4.9c2.4-3.9,7.9-7.6,11.8-6.4c6.4,2,1.5,16.7,1.1,18c-0.4,1.6-4.1,1.6-5.1-0.3
			c-1-1.9,3.4-11.7-0.5-11.8c-3.6-0.2-6.1,7.4-6.6,9.8c-0.4,0.9-3.6,1.1-3.9-0.4c-0.2-0.7,2.1-8.8-2-8.5c-3.4,0.3-3.7,6.7-3.8,11.2
			c0.1,1-2.4,1.9-3.1,1.5c-1.3-0.6-2-16.1-1.2-19.8c0.4-1.5,3.5-1.9,4.1-0.5c0.4,1.4,0.4,3.2,0.4,5.2C74.6,18.2,75.8,16.4,78.4,16.4
			z"/>
		<path class="st0" d="M74.2,38.7c2.5,1.6,5.4,2.7,8.4,2.7c3-0.1,5.7-1.4,8-3.4c1.9-1.7-0.9-4.5-2.8-2.8c-3.5,3.2-7.9,2.6-11.7,0.2
			C75.1,34.6,72.1,37.3,74.2,38.7L74.2,38.7z"/>
	</g>
	<g>
		<path class="st0" d="M122,24.9l7.1-14.1h3.9v24.3h-4V18.8l-5.6,11.6h-2.9L115,18.9v16.2h-4V10.8h3.9L122,24.9z"/>
		<path class="st0" d="M143.4,24.7h3.8v-1.5c0-2.2-0.9-2.8-3.5-2.8c-1.9,0-2.9,0.2-3.7,1.6l-2.7-1.9c1.3-2.1,3.2-2.9,6.7-2.9
			c4.5,0,7,1.4,7,6.1v11.8h-3.7v-1.6c-0.9,1.4-2,1.9-4.1,1.9c-3.9,0-6.3-2-6.3-5.5C136.8,26.1,139.6,24.7,143.4,24.7z M147.3,27.6
			h-3.5c-2.2,0-3.2,0.8-3.2,2.3c0,1.6,1.2,2.3,3,2.3c2.3,0,3.7-0.7,3.7-3.8V27.6z"/>
		<path class="st0" d="M165.6,17.5h3.8v17.2c0,5.4-3.1,7.3-7.7,7.3c-3.2,0-5.2-0.8-6.6-3.1l2.7-1.9c0.8,1.2,1.9,1.8,3.8,1.8
			c2.8,0,4.1-1.2,4.1-4v-0.8c-1,1-2.4,1.5-4.3,1.5c-4.7,0-7.1-3.3-7.1-8V25c0-5.1,2.8-7.9,7.1-7.9c1.9,0,3.3,0.6,4.3,1.5V17.5z
			 M165.6,27.3v-2c0-3-1.2-4.8-3.8-4.8c-2.6,0-3.8,1.7-3.8,4.8v2c0,2.7,1.1,4.9,3.8,4.9C164.7,32.1,165.6,30,165.6,27.3z"/>
		<path class="st0" d="M179.1,24.7h3.8v-1.5c0-2.2-0.9-2.8-3.5-2.8c-1.9,0-2.9,0.2-3.7,1.6l-2.7-1.9c1.3-2.1,3.2-2.9,6.7-2.9
			c4.5,0,7,1.4,7,6.1v11.8H183v-1.6c-0.9,1.4-2,1.9-4.1,1.9c-3.9,0-6.3-2-6.3-5.5C172.5,26.1,175.3,24.7,179.1,24.7z M183,27.6h-3.5
			c-2.2,0-3.2,0.8-3.2,2.3c0,1.6,1.2,2.3,3,2.3c2.3,0,3.7-0.7,3.7-3.8V27.6z"/>
		<path class="st0" d="M198.4,20.7H190v-3.2h13.4v2.7L195,31.8h8.5v3.2h-13.5v-2.7L198.4,20.7z"/>
		<path class="st0" d="M207,10.8h4.1v3.8H207V10.8z M207.2,17.5h3.8v17.6h-3.8V17.5z"/>
		<path class="st0" d="M215.6,17.5h3.7v1.6c0.8-1.1,2.1-1.9,4.4-1.9c3.7,0,6.5,1.8,6.5,6.9v11h-3.8V24.5c0-3.1-1.4-4-3.4-4
			c-2.3,0-3.7,1.6-3.7,3.9v10.6h-3.8V17.5z"/>
		<path class="st0" d="M247.6,32.4c-1.2,2.1-3.2,3-6.3,3c-5.1,0-7.8-3.3-7.8-8V25c0-5.2,2.6-7.9,7.2-7.9c4.9,0,7.2,2.9,7.2,8.1v1.9
			h-10.6v0.1c0,2.7,1.1,4.9,3.9,4.9c2.1,0,2.9-0.6,3.7-1.7L247.6,32.4z M237.3,24.3h6.8c-0.1-2.6-1.2-3.9-3.4-3.9
			C238.5,20.4,237.4,21.9,237.3,24.3z"/>
	</g>
</g>
</svg>
