<svg id="レイヤー_1" data-name="レイヤー 1" xmlns="http://www.w3.org/2000/svg" viewBox="0 0 109.33 49.98"><defs><style>.cls-1{fill:#ec6d82;}</style></defs><title>main-logo</title><path class="cls-1" d="M95.42,29.18a1.91,1.91,0,0,1-2.68,1.54c-1.26-.44-1.37-1.45-.94-2.71a1.9,1.9,0,0,1,2.61-1.39C95.47,27,95.77,27.89,95.42,29.18Z"/><path class="cls-1" d="M84.25,29.08c-.16,1.54-1.07,2.18-2.39,2s-1.59-1.2-1.37-2.52a1.89,1.89,0,0,1,2.34-1.79C83.94,26.91,84.38,27.75,84.25,29.08Z"/><path class="cls-1" d="M10,36.73c-1.61,1.76-4.56.57-4.77-.88-.15-1,9.6-33.35,15.18-33.45,3.48,0,7.78,30.93,7.73,33.41,0,1.6-2.5,1.93-3.67,1.35-2.69-1.73-4.06-11-4.06-11a21.28,21.28,0,0,0-6.37,1.35A93.17,93.17,0,0,1,10,36.73Zm9.06-23.9a68.85,68.85,0,0,0-3.67,9.27,7.29,7.29,0,0,0,4.67-.91A49.32,49.32,0,0,0,19.08,12.83Z"/><path class="cls-1" d="M47.4,13.78a2.3,2.3,0,0,1,4,.52c1,2.23-2.82,12.72-5.25,18.1-1.91,4.51-6.42,12-8.16,13.54-.67.77-4.68,2.43-8.33,1.21-4.17-1.39.54-8.87,5.26-4.15a22.06,22.06,0,0,0,4.29-8c-4.17-5.55-9.2-13.54-8.79-18.52.31-2.39,2.43-4,4.56-2.85S39.63,26.32,42,29.38C42.94,27.72,45.48,16.06,47.4,13.78Z"/><path class="cls-1" d="M62.18,31.11c5.72.67,3-16.54,7.14-16,1.63.24,3,1.74,2,8.68C70.35,30.11,67,37.3,58.76,35.57c-6.31-1.44-5.4-10.61-5.36-12,.19-3.62,1-6.86,3.07-6.86,1.55,0,2.23,1.47,2.21,3.25C58.64,24.06,58.11,30.6,62.18,31.11Z"/><path class="cls-1" d="M83.51,16.11c2.41-.05,4.44,2.12,5,5,2.51-4.05,8.07-7.85,12.16-6.56,6.63,2.07,1.58,17.14,1.15,18.47-.37,1.61-4.24,1.61-5.28-.33s3.53-12-.5-12.16c-3.65-.19-6.28,7.59-6.76,10-.39,1-3.67,1.16-4-.38-.18-.76,2.11-9.09-2-8.78-3.5.26-3.75,6.85-3.93,11.5.06,1.06-2.5,1.92-3.18,1.56-1.28-.62-2-16.53-1.25-20.31.36-1.55,3.65-1.93,4.17-.49A22.65,22.65,0,0,1,79.45,19,4.07,4.07,0,0,1,83.51,16.11Z"/><path class="cls-1" d="M79.21,39.05a15.22,15.22,0,0,0,8.67,2.72,12.68,12.68,0,0,0,8.18-3.51c1.92-1.75-.93-4.58-2.84-2.84-3.59,3.28-8.15,2.67-12,.16-1.13-.75-4.21,2.09-2,3.47Z"/></svg>