<?xml version="1.0" encoding="utf-8"?>
<!-- Generator: Adobe Illustrator 22.0.1, SVG Export Plug-In . SVG Version: 6.00 Build 0)  -->
<svg version="1.1" id="レイヤー_1" xmlns="http://www.w3.org/2000/svg" xmlns:xlink="http://www.w3.org/1999/xlink" x="0px"
	 y="0px" viewBox="0 0 800 1857" style="enable-background:new 0 0 800 1857;" xml:space="preserve">
<style type="text/css">
	.st0{fill:#EC6D74;}
	.st1{fill:#FFFFFF;}
</style>
<g>
	<g>
		<path class="st0" d="M95.6,127.9c0,26.4-21.4,47.8-47.8,47.8S0,154.3,0,127.9s21.4-47.8,47.8-47.8
			C74.2,80.1,95.6,101.5,95.6,127.9z"/>
		<path class="st0" d="M800,127.9c0,26.4-21.4,47.8-47.8,47.8c-26.4,0-47.8-21.4-47.8-47.8s21.4-47.8,47.8-47.8
			C778.6,80.1,800,101.5,800,127.9z"/>
		<path class="st0" d="M447.8,47.8c0,26.4-21.4,47.8-47.8,47.8s-47.8-21.4-47.8-47.8S373.6,0,400,0S447.8,21.4,447.8,47.8z"/>
		<polygon class="st0" points="680.2,541.5 722,218.8 551.7,339.2 400,138.7 248.3,339.2 78,218.8 119.8,541.5 		"/>
		<polygon class="st0" points="126.2,591.5 139.2,691.5 400,691.5 660.8,691.5 673.8,591.5 		"/>
	</g>
</g>
<g>
	<g>
		<path class="st1" d="M95.6,1290.9c0,26.4-21.4,47.8-47.8,47.8S0,1317.3,0,1290.9s21.4-47.8,47.8-47.8S95.6,1264.5,95.6,1290.9z"/>
		<path class="st1" d="M800,1290.9c0,26.4-21.4,47.8-47.8,47.8c-26.4,0-47.8-21.4-47.8-47.8s21.4-47.8,47.8-47.8
			S800,1264.5,800,1290.9z"/>
		<path class="st1" d="M447.8,1210.8c0,26.4-21.4,47.8-47.8,47.8s-47.8-21.4-47.8-47.8c0-26.4,21.4-47.8,47.8-47.8
			S447.8,1184.4,447.8,1210.8z"/>
		<polygon class="st1" points="680.2,1704.5 722,1381.8 551.7,1502.2 400,1301.7 248.3,1502.2 78,1381.8 119.8,1704.5 		"/>
		<polygon class="st1" points="126.2,1754.5 139.2,1854.5 400,1854.5 660.8,1854.5 673.8,1754.5 		"/>
	</g>
</g>
</svg>
