<?xml version="1.0" encoding="utf-8"?>
<!-- Generator: Adobe Illustrator 22.0.1, SVG Export Plug-In . SVG Version: 6.00 Build 0)  -->
<svg version="1.1" id="Layer_1" xmlns="http://www.w3.org/2000/svg" xmlns:xlink="http://www.w3.org/1999/xlink" x="0px" y="0px"
	 viewBox="0 0 40 40" style="enable-background:new 0 0 40 40;" xml:space="preserve">
<style type="text/css">
	.st0{fill:#EB6D74;}
</style>
<g>
	<g>
		<g>
			<path class="st0" d="M9.2,11.1c0,1-0.8,1.9-1.7,1.9c-0.9,0-1.7-0.8-1.7-1.9s0.8-1.9,1.7-1.9C8.5,9.2,9.2,10.1,9.2,11.1z"/>
			<path class="st0" d="M34.1,11.1c0,1-0.8,1.9-1.7,1.9c-0.9,0-1.7-0.8-1.7-1.9s0.8-1.9,1.7-1.9C33.3,9.2,34.1,10.1,34.1,11.1z"/>
			<path class="st0" d="M21.6,8c0,1-0.8,1.9-1.7,1.9C19,9.9,18.3,9,18.3,8c0-1,0.8-1.9,1.7-1.9C20.9,6.1,21.6,6.9,21.6,8z"/>
			<polygon class="st0" points="29.8,27.3 31.3,14.7 25.3,19.4 20,11.5 14.6,19.4 8.6,14.7 10.1,27.3 			"/>
			<polygon class="st0" points="10.3,29.3 10.8,33.2 20,33.2 29.2,33.2 29.6,29.3 			"/>
		</g>
	</g>
</g>
</svg>
